<svg width="40" height="40" viewBox="0 0 40 40" fill="none" xmlns="http://www.w3.org/2000/svg">
<path d="M36.666 26.984V13.0173C36.666 6.95065 33.0493 3.33398 26.9827 3.33398L13.0327 3.33398C6.94935 3.33398 3.33268 6.95065 3.33268 13.0173V26.9673C3.33268 33.034 6.94935 36.6507 13.016 36.6507H26.9827C33.0493 36.6673 36.666 33.0507 36.666 26.984ZM11.8327 15.184C11.366 15.184 10.9993 14.8173 10.9993 14.3506V9.70065C10.9993 9.23398 11.366 8.86732 11.8327 8.86732H19.5327C20.5827 8.86732 21.4327 9.71732 21.4327 10.7673V14.3506C21.4327 14.8173 21.066 15.184 20.5993 15.184H11.8327ZM11.8327 23.1507C11.366 23.1507 10.9993 22.784 10.9993 22.3173V17.6673C10.9993 17.2007 11.366 16.834 11.8327 16.834H27.0993C28.1493 16.834 28.9993 17.684 28.9993 18.734V21.2673C28.9993 22.3173 28.1493 23.1673 27.0993 23.1673L11.8327 23.1673V23.1507ZM11.8327 31.134C11.366 31.134 10.9993 30.7673 10.9993 30.3007V25.6507C10.9993 25.184 11.366 24.8173 11.8327 24.8173L17.7493 24.8173C18.216 24.8173 18.5827 25.184 18.5827 25.6507V29.234C18.5827 30.284 17.7327 31.134 16.6827 31.134L11.8327 31.134Z" fill="white"/>
</svg>
